<svg xmlns="http://www.w3.org/2000/svg" width="1000" height="300" viewBox="0 0 1000 300" role="img" aria-labelledby="title desc"><title id="title">Activité GitHub de Daouda Sidibe</title><desc id="desc">467 contributions en 2026, 8 dépôts publics. Mis à jour le 09/10/2026.</desc><rect x=".5" y=".5" width="999" height="299" rx="16" fill="#f6f0e8" stroke="#e2d7c9"/><text x="32" y="42" fill="#a55c39" font-family="monospace" font-size="15" letter-spacing="2">ACTIVITÉ GITHUB</text><text x="32" y="115" fill="#283039" font-family="Georgia,serif" font-size="58">467</text><text x="32" y="146" fill="#746455" font-family="Verdana,sans-serif" font-size="15">contributions en 2026</text><text x="32" y="205" fill="#283039" font-family="Georgia,serif" font-size="35">8</text><text x="75" y="202" fill="#746455" font-family="Verdana,sans-serif" font-size="15">dépôts publics</text><text x="324" y="68" fill="#283039" font-family="Verdana,sans-serif" font-size="15">Les 90 derniers jours</text><rect x="324" y="88" width="33" height="16" rx="3" fill="#dec0a6"><title>2026-07-12 : 1 contributions</title></rect><rect x="324" y="109" width="33" height="16" rx="3" fill="#7b472b"><title>2026-07-13 : 56 contributions</title></rect><rect x="324" y="130" width="33" height="16" rx="3" fill="#ad7046"><title>2026-07-14 : 19 contributions</title></rect><rect x="324" y="151" width="33" height="16" rx="3" fill="#e7ded2"><title>2026-07-15 : 0 contributions</title></rect><rect x="324" y="172" width="33" height="16" rx="3" fill="#dec0a6"><title>2026-07-16 : 4 contributions</title></rect><rect x="324" y="193" width="33" height="16" rx="3" fill="#e7ded2"><title>2026-07-17 : 0 contributions</title></rect><rect x="324" y="214" width="33" height="16" rx="3" fill="#e7ded2"><title>2026-07-18 : 0 contributions</title></rect><rect x="367" y="88" width="33" height="16" rx="3" fill="#e7ded2"><title>2026-07-19 : 0 contributions</title></rect><rect x="367" y="109" width="33" height="16" rx="3" fill="#e7ded2"><title>2026-07-20 : 0 contributions</title></rect><rect x="367" y="130" width="33" height="16" rx="3" fill="#e7ded2"><title>2026-07-21 : 0 contributions</title></rect><rect x="367" y="151" width="33" height="16" rx="3" fill="#e7ded2"><title>2026-07-22 : 0 contributions</title></rect><rect x="367" y="172" width="33" height="16" rx="3" fill="#e7ded2"><title>2026-07-23 : 0 contributions</title></rect><rect x="367" y="193" width="33" height="16" rx="3" fill="#e7ded2"><title>2026-07-24 : 0 contributions</title></rect><rect x="367" y="214" width="33" height="16" rx="3" fill="#e7ded2"><title>2026-07-25 : 0 contributions</title></rect><rect x="410" y="88" width="33" height="16" rx="3" fill="#e7ded2"><title>2026-07-26 : 0 contributions</title></rect><rect x="410" y="109" width="33" height="16" rx="3" fill="#e7ded2"><title>2026-07-27 : 0 contributions</title></rect><rect x="410" y="130" width="33" height="16" rx="3" fill="#e7ded2"><title>2026-07-28 : 0 contributions</title></rect><rect x="410" y="151" width="33" height="16" rx="3" fill="#e7ded2"><title>2026-07-29 : 0 contributions</title></rect><rect x="410" y="172" width="33" height="16" rx="3" fill="#e7ded2"><title>2026-07-30 : 0 contributions</title></rect><rect x="410" y="193" width="33" height="16" rx="3" fill="#e7ded2"><title>2026-07-31 : 0 contributions</title></rect><rect x="410" y="214" width="33" height="16" rx="3" fill="#e7ded2"><title>2026-08-01 : 0 contributions</title></rect><rect x="453" y="88" width="33" height="16" rx="3" fill="#e7ded2"><title>2026-08-02 : 0 contributions</title></rect><rect x="453" y="109" width="33" height="16" rx="3" fill="#e7ded2"><title>2026-08-03 : 0 contributions</title></rect><rect x="453" y="130" width="33" height="16" rx="3" fill="#e7ded2"><title>2026-08-04 : 0 contributions</title></rect><rect x="453" y="151" width="33" height="16" rx="3" fill="#e7ded2"><title>2026-08-05 : 0 contributions</title></rect><rect x="453" y="172" width="33" height="16" rx="3" fill="#e7ded2"><title>2026-08-06 : 0 contributions</title></rect><rect x="453" y="193" width="33" height="16" rx="3" fill="#e7ded2"><title>2026-08-07 : 0 contributions</title></rect><rect x="453" y="214" width="33" height="16" rx="3" fill="#e7ded2"><title>2026-08-08 : 0 contributions</title></rect><rect x="496" y="88" width="33" height="16" rx="3" fill="#e7ded2"><title>2026-08-09 : 0 contributions</title></rect><rect x="496" y="109" width="33" height="16" rx="3" fill="#e7ded2"><title>2026-08-10 : 0 contributions</title></rect><rect x="496" y="130" width="33" height="16" rx="3" fill="#e7ded2"><title>2026-08-11 : 0 contributions</title></rect><rect x="496" y="151" width="33" height="16" rx="3" fill="#e7ded2"><title>2026-08-12 : 0 contributions</title></rect><rect x="496" y="172" width="33" height="16" rx="3" fill="#e7ded2"><title>2026-08-13 : 0 contributions</title></rect><rect x="496" y="193" width="33" height="16" rx="3" fill="#e7ded2"><title>2026-08-14 : 0 contributions</title></rect><rect x="496" y="214" width="33" height="16" rx="3" fill="#e7ded2"><title>2026-08-15 : 0 contributions</title></rect><rect x="539" y="88" width="33" height="16" rx="3" fill="#e7ded2"><title>2026-08-16 : 0 contributions</title></rect><rect x="539" y="109" width="33" height="16" rx="3" fill="#e7ded2"><title>2026-08-17 : 0 contributions</title></rect><rect x="539" y="130" width="33" height="16" rx="3" fill="#e7ded2"><title>2026-08-18 : 0 contributions</title></rect><rect x="539" y="151" width="33" height="16" rx="3" fill="#e7ded2"><title>2026-08-19 : 0 contributions</title></rect><rect x="539" y="172" width="33" height="16" rx="3" fill="#e7ded2"><title>2026-08-20 : 0 contributions</title></rect><rect x="539" y="193" width="33" height="16" rx="3" fill="#e7ded2"><title>2026-08-21 : 0 contributions</title></rect><rect x="539" y="214" width="33" height="16" rx="3" fill="#e7ded2"><title>2026-08-22 : 0 contributions</title></rect><rect x="582" y="88" width="33" height="16" rx="3" fill="#e7ded2"><title>2026-08-23 : 0 contributions</title></rect><rect x="582" y="109" width="33" height="16" rx="3" fill="#e7ded2"><title>2026-08-24 : 0 contributions</title></rect><rect x="582" y="130" width="33" height="16" rx="3" fill="#e7ded2"><title>2026-08-25 : 0 contributions</title></rect><rect x="582" y="151" width="33" height="16" rx="3" fill="#e7ded2"><title>2026-08-26 : 0 contributions</title></rect><rect x="582" y="172" width="33" height="16" rx="3" fill="#e7ded2"><title>2026-08-27 : 0 contributions</title></rect><rect x="582" y="193" width="33" height="16" rx="3" fill="#e7ded2"><title>2026-08-28 : 0 contributions</title></rect><rect x="582" y="214" width="33" height="16" rx="3" fill="#e7ded2"><title>2026-08-29 : 0 contributions</title></rect><rect x="625" y="88" width="33" height="16" rx="3" fill="#e7ded2"><title>2026-08-30 : 0 contributions</title></rect><rect x="625" y="109" width="33" height="16" rx="3" fill="#e7ded2"><title>2026-08-31 : 0 contributions</title></rect><rect x="625" y="130" width="33" height="16" rx="3" fill="#e7ded2"><title>2026-09-01 : 0 contributions</title></rect><rect x="625" y="151" width="33" height="16" rx="3" fill="#e7ded2"><title>2026-09-02 : 0 contributions</title></rect><rect x="625" y="172" width="33" height="16" rx="3" fill="#e7ded2"><title>2026-09-03 : 0 contributions</title></rect><rect x="625" y="193" width="33" height="16" rx="3" fill="#e7ded2"><title>2026-09-04 : 0 contributions</title></rect><rect x="625" y="214" width="33" height="16" rx="3" fill="#e7ded2"><title>2026-09-05 : 0 contributions</title></rect><rect x="668" y="88" width="33" height="16" rx="3" fill="#e7ded2"><title>2026-09-06 : 0 contributions</title></rect><rect x="668" y="109" width="33" height="16" rx="3" fill="#e7ded2"><title>2026-09-07 : 0 contributions</title></rect><rect x="668" y="130" width="33" height="16" rx="3" fill="#e7ded2"><title>2026-09-08 : 0 contributions</title></rect><rect x="668" y="151" width="33" height="16" rx="3" fill="#e7ded2"><title>2026-09-09 : 0 contributions</title></rect><rect x="668" y="172" width="33" height="16" rx="3" fill="#e7ded2"><title>2026-09-10 : 0 contributions</title></rect><rect x="668" y="193" width="33" height="16" rx="3" fill="#e7ded2"><title>2026-09-11 : 0 contributions</title></rect><rect x="668" y="214" width="33" height="16" rx="3" fill="#dec0a6"><title>2026-09-12 : 1 contributions</title></rect><rect x="711" y="88" width="33" height="16" rx="3" fill="#c9946c"><title>2026-09-13 : 5 contributions</title></rect><rect x="711" y="109" width="33" height="16" rx="3" fill="#c9946c"><title>2026-09-14 : 8 contributions</title></rect><rect x="711" y="130" width="33" height="16" rx="3" fill="#e7ded2"><title>2026-09-15 : 0 contributions</title></rect><rect x="711" y="151" width="33" height="16" rx="3" fill="#e7ded2"><title>2026-09-16 : 0 contributions</title></rect><rect x="711" y="172" width="33" height="16" rx="3" fill="#e7ded2"><title>2026-09-17 : 0 contributions</title></rect><rect x="711" y="193" width="33" height="16" rx="3" fill="#e7ded2"><title>2026-09-18 : 0 contributions</title></rect><rect x="711" y="214" width="33" height="16" rx="3" fill="#e7ded2"><title>2026-09-19 : 0 contributions</title></rect><rect x="754" y="88" width="33" height="16" rx="3" fill="#e7ded2"><title>2026-09-20 : 0 contributions</title></rect><rect x="754" y="109" width="33" height="16" rx="3" fill="#e7ded2"><title>2026-09-21 : 0 contributions</title></rect><rect x="754" y="130" width="33" height="16" rx="3" fill="#e7ded2"><title>2026-09-22 : 0 contributions</title></rect><rect x="754" y="151" width="33" height="16" rx="3" fill="#e7ded2"><title>2026-09-23 : 0 contributions</title></rect><rect x="754" y="172" width="33" height="16" rx="3" fill="#e7ded2"><title>2026-09-24 : 0 contributions</title></rect><rect x="754" y="193" width="33" height="16" rx="3" fill="#e7ded2"><title>2026-09-25 : 0 contributions</title></rect><rect x="754" y="214" width="33" height="16" rx="3" fill="#e7ded2"><title>2026-09-26 : 0 contributions</title></rect><rect x="797" y="88" width="33" height="16" rx="3" fill="#e7ded2"><title>2026-09-27 : 0 contributions</title></rect><rect x="797" y="109" width="33" height="16" rx="3" fill="#e7ded2"><title>2026-09-28 : 0 contributions</title></rect><rect x="797" y="130" width="33" height="16" rx="3" fill="#e7ded2"><title>2026-09-29 : 0 contributions</title></rect><rect x="797" y="151" width="33" height="16" rx="3" fill="#e7ded2"><title>2026-09-30 : 0 contributions</title></rect><rect x="797" y="172" width="33" height="16" rx="3" fill="#e7ded2"><title>2026-10-01 : 0 contributions</title></rect><rect x="797" y="193" width="33" height="16" rx="3" fill="#e7ded2"><title>2026-10-02 : 0 contributions</title></rect><rect x="797" y="214" width="33" height="16" rx="3" fill="#e7ded2"><title>2026-10-03 : 0 contributions</title></rect><rect x="840" y="88" width="33" height="16" rx="3" fill="#e7ded2"><title>2026-10-04 : 0 contributions</title></rect><rect x="840" y="109" width="33" height="16" rx="3" fill="#ad7046"><title>2026-10-05 : 14 contributions</title></rect><rect x="840" y="130" width="33" height="16" rx="3" fill="#c9946c"><title>2026-10-06 : 8 contributions</title></rect><rect x="840" y="151" width="33" height="16" rx="3" fill="#e7ded2"><title>2026-10-07 : 0 contributions</title></rect><rect x="840" y="172" width="33" height="16" rx="3" fill="#c9946c"><title>2026-10-08 : 8 contributions</title></rect><rect x="840" y="193" width="33" height="16" rx="3" fill="#e7ded2"><title>2026-10-09 : 0 contributions</title></rect><text x="324" y="270" fill="#746455" font-family="Verdana,sans-serif" font-size="13">Relevé du 09/10/2026 · données affichées par GitHub</text></svg>
